HIERARCHY
ROOT hip
{
	OFFSET 0.000000 0.000000 0.000000
	CHANNELS 6 Xposition Yposition Zposition Xrotation Zrotation Yrotation 
	JOINT abdomen
	{
		OFFSET 0.000000 3.422050 0.000000
		CHANNELS 3 Xrotation Zrotation Yrotation 
		JOINT chest
		{
			OFFSET 0.000000 8.486693 -0.684411
			CHANNELS 3 Xrotation Zrotation Yrotation 
			JOINT neck
			{
				OFFSET 0.000000 10.266162 -0.273764
				CHANNELS 3 Xrotation Zrotation Yrotation 
				JOINT head
				{
					OFFSET 0.000000 3.148285 0.000000
					CHANNELS 3 Xrotation Zrotation Yrotation 
					End Site
					{
						OFFSET 0.000000 3.148289 0.000000
					}
				}
			}
			JOINT lCollar
			{
				OFFSET 3.422053 6.707223 -0.821293
				CHANNELS 3 Yrotation Zrotation Xrotation 
				JOINT lShldr
				{
					OFFSET 3.285171 0.000000 0.000000
					CHANNELS 3 Zrotation Yrotation Xrotation 
					JOINT lForeArm
					{
						OFFSET 10.129278 0.000000 0.000000
						CHANNELS 3 Yrotation Zrotation Xrotation 
						JOINT lHand
						{
							OFFSET 8.486692 0.000000 0.000000
							CHANNELS 3 Zrotation Yrotation Xrotation 
							End Site
							{
								OFFSET 4.106464 0.000000 0.000000
							}
						}
					}
				}
			}
			JOINT rCollar
			{
				OFFSET -3.558935 6.707223 -0.821293
				CHANNELS 3 Yrotation Zrotation Xrotation 
				JOINT rShldr
				{
					OFFSET -3.148289 0.000000 0.000000
					CHANNELS 3 Zrotation Yrotation Xrotation 
					JOINT rForeArm
					{
						OFFSET -10.266159 0.000000 0.000000
						CHANNELS 3 Yrotation Zrotation Xrotation 
						JOINT rHand
						{
							OFFSET -8.349810 0.000000 0.000000
							CHANNELS 3 Zrotation Yrotation Xrotation 
							End Site
							{
								OFFSET -4.106464 0.000000 0.000000
							}
						}
					}
				}
			}
		}
	}
	JOINT lThigh
	{
		OFFSET 5.338403 -1.642589 1.368821
		CHANNELS 3 Xrotation Zrotation Yrotation 
		JOINT lShin
		{
			OFFSET -2.053232 -20.121670 0.000000
			CHANNELS 3 Xrotation Zrotation Yrotation 
			JOINT lFoot
			{
				OFFSET 0.000000 -19.300380 -1.231939
				CHANNELS 3 Xrotation Yrotation Zrotation 
				End Site
				{
					OFFSET 0.000000 -2.463878 4.653993
				}
			}
		}
	}
	JOINT rThigh
	{
		OFFSET -5.338403 -1.642589 1.368821
		CHANNELS 3 Xrotation Zrotation Yrotation 
		JOINT rShin
		{
			OFFSET 2.053232 -20.121670 0.000000
			CHANNELS 3 Xrotation Zrotation Yrotation 
			JOINT rFoot
			{
				OFFSET 0.000000 -19.300380 -1.231939
				CHANNELS 3 Xrotation Yrotation Zrotation 
				End Site
				{
					OFFSET 0.000000 -2.463878 4.653993
				}
			}
		}
	}
}
MOTION
Frames: 14
Frame Time: 0.033264
-1.324646 9.384998 8.424290 17.700624 0.000000 -180.000000 -3.607357 -0.071730 -0.295517 22.763630 -2.255607 0.498360 -0.118322 0.000000 0.000000 -0.090274 0.049957 -0.000039 13.448747 -25.733221 -32.678848 -44.849285 -6.666318 6.275561 -101.227486 -65.016388 -41.786129 31.069601 9.073615 30.131403 -17.535410 15.754892 -35.374569 41.845596 7.159534 5.664064 63.835194 62.323502 -8.092364 -15.877340 7.945553 8.733290 -89.070290 67.106857 44.466396 115.343674 4.852614 0.959789 43.614868 -17.265167 -21.753691 -82.556183 -57.224979 -51.465214 117.097267 -4.811062 -1.111628 33.563030 12.487231 26.523399 
-1.324646 9.384998 8.465140 17.400295 0.000000 -180.000000 -3.857482 -0.071765 -0.295466 23.492435 -2.255557 0.498379 -0.117731 0.000000 0.000000 -0.089823 0.049707 -0.000039 13.204320 -25.665514 -33.149807 -44.849285 -6.666318 6.275561 -101.784821 -64.973724 -42.287891 31.279531 8.895473 30.154942 -17.477566 15.552096 -35.747524 41.971336 7.192019 5.675018 64.227257 62.411980 -8.439427 -16.222044 8.186186 8.586869 -89.415573 67.001846 44.453659 115.343674 4.852614 0.959789 43.673424 -17.194885 -21.821571 -82.897598 -57.155983 -51.468655 117.097267 -4.811062 -1.111628 33.563030 12.487231 26.523399 
-1.324646 9.384998 8.505992 17.099974 0.000000 -180.000000 -4.107602 -0.071800 -0.295414 24.221121 -2.255508 0.498398 -0.117139 0.000000 0.000000 -0.089371 0.049457 -0.000039 12.960662 -25.595995 -33.620136 -44.849285 -6.666318 6.275561 -102.340332 -64.929016 -42.787846 31.489283 8.717250 30.177805 -17.421162 15.348955 -36.119873 42.097088 7.224478 5.686045 64.621605 62.499340 -8.788811 -16.567558 8.425926 8.438909 -89.759361 66.896866 44.442604 115.343674 4.852614 0.959789 43.732044 -17.124676 -21.889502 -83.238388 -57.087021 -51.472874 117.097267 -4.811062 -1.111628 33.563030 12.487231 26.523399 
-1.324646 9.384998 8.546843 16.799665 0.000000 -180.000000 -4.357715 -0.071835 -0.295363 24.949631 -2.255458 0.498418 -0.116547 0.000000 0.000000 -0.088920 0.049208 -0.000038 12.717819 -25.524691 -34.089832 -44.849285 -6.666318 6.275561 -102.893929 -64.882225 -43.285862 31.698872 8.538957 30.200012 -17.366175 15.145476 -36.491619 42.222855 7.256914 5.697144 65.018272 62.585590 -9.140509 -16.913885 8.664759 8.289405 -90.101601 66.791862 44.433186 115.343674 4.852614 0.959789 43.790741 -17.054531 -21.957483 -83.578514 -57.018051 -51.477806 117.097267 -4.811062 -1.111628 33.563030 12.487231 26.523399 
-1.324646 9.384998 8.587694 16.499371 0.000000 -180.000000 -4.607817 -0.071869 -0.295311 25.677906 -2.255409 0.498439 -0.115956 0.000000 0.000000 -0.088469 0.048958 -0.000038 12.475801 -25.451597 -34.558838 -44.849285 -6.666318 6.275561 -103.445580 -64.833450 -43.781929 31.908264 8.360589 30.221535 -17.312618 14.941685 -36.862782 42.348637 7.289325 5.708315 65.417206 62.670704 -9.494506 -17.261028 8.902666 8.138367 -90.442245 66.686768 44.425354 115.343674 4.852614 0.959789 43.849487 -16.984453 -22.025509 -83.918015 -56.949120 -51.483490 117.097267 -4.811062 -1.111628 33.563030 12.487231 26.523399 
-1.324646 9.384998 8.628546 16.199108 0.000000 -180.000000 -4.857908 -0.071903 -0.295259 26.405888 -2.255361 0.498460 -0.115364 0.000000 0.000000 -0.088017 0.048708 -0.000037 12.234637 -25.376730 -35.027149 -44.849285 -6.666318 6.275561 -103.995140 -64.782616 -44.275902 32.117481 8.182153 30.242384 -17.260487 14.737585 -37.233334 42.474434 7.321712 5.719559 65.818436 62.754700 -9.850793 -17.608982 9.139630 7.985792 -90.781448 66.581726 44.419159 115.343674 4.852614 0.959789 43.908302 -16.914442 -22.093590 -84.256844 -56.880196 -51.489902 117.097267 -4.811062 -1.111628 33.563030 12.487231 26.523399 
-1.324646 9.384998 8.669396 15.898864 0.000000 -180.000000 -5.107985 -0.071937 -0.295207 27.133507 -2.255312 0.498482 -0.114773 0.000000 0.000000 -0.087566 0.048458 -0.000037 11.994345 -25.300098 -35.494743 -44.849285 -6.666318 6.275561 -104.542587 -64.729805 -44.767750 32.326542 8.003658 30.262577 -17.209774 14.533198 -37.603302 42.600235 7.354072 5.730874 66.221878 62.837517 -10.209341 -17.957752 9.375634 7.831686 -91.119125 66.476677 44.414543 115.343674 4.852614 0.959789 43.967178 -16.844496 -22.161713 -84.595078 -56.811337 -51.497070 117.097267 -4.811062 -1.111628 33.563030 12.487231 26.523399 
-1.324646 9.384998 8.710248 15.598657 0.000000 -180.000000 -5.358045 -0.071971 -0.295154 27.860723 -2.255264 0.498504 -0.114181 0.000000 0.000000 -0.087114 0.048209 -0.000037 11.754956 -25.221716 -35.961575 -44.849285 -6.666318 6.275561 -105.087807 -64.674957 -45.257374 32.535423 7.825105 30.282095 -17.160480 14.328538 -37.972675 42.726063 7.386409 5.742264 66.627602 62.919186 -10.570167 -18.307337 9.610661 7.676049 -91.455376 66.371643 44.411480 115.343674 4.852614 0.959789 44.026123 -16.774622 -22.229887 -84.932617 -56.742485 -51.504944 117.097267 -4.811062 -1.111628 33.563030 12.487231 26.523399 
-1.324646 9.384998 8.751099 15.298480 0.000000 -180.000000 -5.608087 -0.072005 -0.295102 28.587475 -2.255216 0.498527 -0.113589 0.000000 0.000000 -0.086663 0.047959 -0.000036 11.516491 -25.141596 -36.427647 -44.849285 -6.666318 6.275561 -105.630798 -64.618179 -45.744736 32.744129 7.646498 30.300943 -17.112602 14.123614 -38.341450 42.851894 7.418718 5.753723 67.035538 62.999657 -10.933238 -18.657728 9.844691 7.518885 -91.790085 66.266602 44.409985 115.343674 4.852614 0.959789 44.085133 -16.704817 -22.298115 -85.269531 -56.673676 -51.513542 117.097267 -4.811062 -1.111628 33.563030 12.487231 26.523399 
-1.324646 9.384998 8.791950 14.998341 0.000000 -180.000000 -5.858106 -0.072038 -0.295049 29.313694 -2.255169 0.498551 -0.112998 0.000000 0.000000 -0.086212 0.047709 -0.000036 11.278968 -25.059732 -36.892902 -44.849285 -6.666318 6.275561 -106.171425 -64.559410 -46.229752 32.952686 7.467845 30.319141 -17.066139 13.918447 -38.709637 42.977745 7.451004 5.765257 67.445694 63.078964 -11.298546 -19.008940 10.077713 7.360199 -92.123375 66.161583 44.410007 115.343674 4.852614 0.959789 44.144207 -16.635080 -22.366385 -85.605759 -56.604904 -51.522869 117.097267 -4.811062 -1.111628 33.563030 12.487231 26.523399 
-1.324646 9.384998 8.832802 14.698241 0.000000 -180.000000 -6.108101 -0.072071 -0.294997 30.039326 -2.255122 0.498575 -0.112406 0.000000 0.000000 -0.085760 0.047459 -0.000036 11.042419 -24.976164 -37.357342 -44.849285 -6.666318 6.275561 -106.709618 -64.498665 -46.712315 33.161057 7.289145 30.336655 -17.021084 13.713048 -39.077232 43.103611 7.483261 5.776861 67.858063 63.157082 -11.666070 -19.360962 10.309703 7.199994 -92.455223 66.056587 44.411537 115.343674 4.852614 0.959789 44.203339 -16.565411 -22.434706 -85.941368 -56.536182 -51.532902 117.097267 -4.811062 -1.111628 33.563030 12.487231 26.523399 
-1.324646 9.384998 8.873652 14.398194 0.000000 -180.000000 -6.358072 -0.072104 -0.294944 30.764313 -2.255075 0.498600 -0.111815 0.000000 0.000000 -0.085309 0.047209 -0.000035 10.806854 -24.890879 -37.820934 -44.849285 -6.666318 6.275561 -107.245392 -64.436012 -47.192448 33.369274 7.110408 30.353516 -16.977440 13.507431 -39.444233 43.229488 7.515495 5.788538 68.272575 63.233959 -12.035780 -19.713795 10.540650 7.038273 -92.785683 65.951637 44.414547 115.343674 4.852614 0.959789 44.262527 -16.495810 -22.503075 -86.276321 -56.467514 -51.543655 117.097267 -4.811062 -1.111628 33.563030 12.487231 26.523399 
-1.324646 9.384998 8.914504 14.098201 0.000000 -180.000000 -6.608014 -0.072137 -0.294891 31.488609 -2.255028 0.498625 -0.111223 0.000000 0.000000 -0.084858 0.046960 -0.000035 10.572304 -24.803905 -38.283653 -44.849285 -6.666318 6.275561 -107.778618 -64.371422 -47.670029 33.577335 6.931634 30.369713 -16.935200 13.301614 -39.810650 43.355373 7.547700 5.800287 68.689301 63.309666 -12.407681 -20.067436 10.770534 6.875038 -93.114716 65.846695 44.419010 115.343674 4.852614 0.959789 44.321800 -16.426285 -22.571495 -86.610596 -56.398884 -51.555096 117.097267 -4.811062 -1.111628 33.563030 12.487231 26.523399 
-1.324646 9.384998 8.955355 13.798256 0.000000 -180.000000 -6.857922 -0.072169 -0.294838 32.212139 -2.254982 0.498651 -0.110631 0.000000 0.000000 -0.084406 0.046710 -0.000034 10.338786 -24.715248 -38.745483 -44.849285 -6.666318 6.275561 -108.309265 -64.304939 -48.145020 33.785225 6.752829 30.385237 -16.894358 13.095603 -40.176472 43.481270 7.579881 5.812108 69.108131 63.384117 -12.781740 -20.421888 10.999340 6.710297 -93.442322 65.741791 44.424923 115.343674 4.852614 0.959789 44.381130 -16.356825 -22.639961 -86.944221 -56.330311 -51.567234 117.097267 -4.811062 -1.111628 33.563030 12.487231 26.523399 
